<?xml version="1.0" standalone="no"?>
<!DOCTYPE svg PUBLIC "-//W3C//DTD SVG 20010904//EN"
 "http://www.w3.org/TR/2001/REC-SVG-20010904/DTD/svg10.dtd">
<svg version="1.0" xmlns="http://www.w3.org/2000/svg"
 width="300.000000pt" height="300.000000pt" viewBox="0 0 300.000000 300.000000"
 preserveAspectRatio="xMidYMid meet">
<metadata>
Created by potrace 1.10, written by Peter Selinger 2001-2011
</metadata>
<g transform="translate(0.000000,300.000000) scale(0.100000,-0.100000)"
fill="#000000" stroke="none">
<path d="M893 2923 c104 -2 270 -2 370 0 100 1 16 2 -188 2 -203 0 -285 -1
-182 -2z"/>
<path d="M773 2853 c37 -2 97 -2 135 0 37 2 6 3 -68 3 -74 0 -105 -1 -67 -3z"/>
<path d="M1083 2853 c20 -2 54 -2 75 0 20 2 3 4 -38 4 -41 0 -58 -2 -37 -4z"/>
<path d="M1272 2733 l2 -128 3 122 4 122 82 4 82 3 -87 2 -88 2 2 -127z"/>
<path d="M710 2600 l0 -30 104 0 c58 0 107 3 109 8 3 4 -42 6 -100 4 l-106 -3
5 25 c3 14 1 26 -3 26 -5 0 -9 -13 -9 -30z"/>
<path d="M1358 2609 c-47 -24 -132 -125 -149 -176 -32 -95 -4 -206 75 -300 38
-44 123 -103 148 -103 19 0 39 -52 28 -71 -7 -11 -17 -11 -52 -2 -35 9 -49 9
-75 -3 -17 -9 -34 -22 -37 -30 -4 -10 3 -8 22 6 23 19 35 21 83 16 43 -5 59
-3 68 8 14 17 7 52 -17 79 -9 10 -16 37 -16 61 -1 33 -4 42 -16 39 -14 -3 -50
46 -50 68 0 15 30 10 36 -6 7 -16 39 -20 48 -6 3 5 23 7 44 4 24 -3 44 1 57
10 18 14 16 15 -28 10 -38 -5 -50 -2 -61 12 -15 21 -38 12 -29 -12 4 -11 3
-14 -5 -9 -27 17 -9 47 37 61 17 5 21 4 16 -5 -6 -9 -2 -9 15 0 12 6 33 9 46
6 15 -4 24 -2 24 5 0 8 -13 10 -39 6 l-39 -5 10 30 c6 16 8 45 5 64 -5 31 -4
34 9 23 12 -10 20 -10 34 -2 13 9 20 9 29 0 18 -18 12 -28 -14 -21 -18 4 -25
2 -25 -9 0 -27 22 -36 60 -23 42 14 62 48 49 85 -9 21 -8 24 3 13 7 -7 13 -32
13 -54 0 -50 21 -62 28 -16 7 49 -12 81 -53 89 -19 4 -36 6 -37 5 -1 -1 4 -14
12 -29 15 -29 7 -34 -26 -16 -14 7 -18 16 -14 30 9 28 -15 24 -62 -10 -27 -19
-44 -26 -50 -20 -7 7 -12 5 -16 -5 -4 -10 -1 -13 9 -9 24 9 16 -25 -10 -42
-17 -11 -26 -29 -31 -63 -4 -26 -10 -51 -13 -56 -7 -13 -20 22 -21 57 -1 21
-6 27 -24 27 -54 0 -86 69 -49 103 35 32 92 -12 62 -48 -13 -16 -50 -4 -50 17
0 7 5 6 15 -2 19 -15 30 -7 21 15 -9 24 -40 14 -44 -13 -5 -30 12 -49 48 -54
31 -5 44 10 34 37 -7 17 38 70 78 91 29 15 108 19 108 5 0 -4 13 -8 30 -7 35
1 39 20 15 66 -44 85 -181 125 -267 79z m158 -38 c23 -10 51 -33 64 -51 l23
-32 -50 7 c-54 7 -104 -7 -136 -39 -14 -14 -23 -15 -54 -7 -50 14 -50 14 -73
-9 -28 -28 -27 -87 2 -117 12 -13 28 -23 35 -23 17 0 43 -24 43 -40 0 -7 -8
-25 -17 -41 -14 -24 -15 -34 -6 -59 15 -40 2 -38 -37 7 -48 54 -70 109 -70
176 0 70 18 116 67 171 65 73 132 92 209 57z"/>
<path d="M773 2543 c26 -2 68 -2 95 0 26 2 4 3 -48 3 -52 0 -74 -1 -47 -3z"/>
<path d="M1627 2313 c-4 -3 -7 -11 -7 -17 0 -6 5 -5 12 2 16 16 48 15 48 -1 0
-7 -10 -17 -22 -22 -39 -18 -45 -41 -20 -74 12 -17 22 -33 22 -36 0 -11 -29
-5 -33 8 -3 7 -6 5 -6 -5 -1 -21 31 -24 48 -5 8 11 5 19 -14 37 -14 13 -25 31
-25 39 0 14 2 14 10 1 8 -13 11 -11 16 7 6 22 6 22 30 -6 13 -16 24 -42 24
-58 0 -41 -50 -135 -80 -151 l-25 -13 25 3 c58 7 111 159 75 214 -14 22 -15
28 -4 36 11 7 11 11 2 15 -7 2 -13 11 -13 19 0 14 -50 20 -63 7z"/>
<path d="M712 2213 l3 -48 45 -1 45 -1 -42 4 c-42 4 -43 5 -43 39 0 18 5 34
10 34 6 0 10 5 10 10 0 6 -7 10 -16 10 -12 0 -14 -10 -12 -47z"/>
<path d="M1796 2229 c-15 -75 -4 -124 35 -162 24 -22 18 -50 -24 -129 l-31
-57 -12 28 c-23 56 -86 77 -131 46 -24 -17 -25 -15 -35 49 -2 11 -15 23 -33
29 -16 5 -47 23 -69 40 -21 16 -37 24 -34 16 2 -8 29 -33 59 -56 30 -23 64
-57 74 -77 20 -38 58 -51 53 -19 -2 10 5 19 15 21 54 11 121 -65 93 -104 -13
-17 -14 -17 -31 0 -25 25 -31 11 -6 -15 28 -30 22 -33 -25 -13 -78 33 -90 36
-143 40 -42 3 -66 12 -105 39 -27 19 -53 32 -58 29 -5 -4 3 -13 19 -20 37 -19
57 -45 42 -55 -6 -3 22 -7 62 -7 82 -1 180 -30 214 -62 l22 -20 11 38 c7 22
30 71 52 109 56 97 60 128 21 177 -24 30 -31 49 -31 82 0 24 5 44 10 44 6 0
10 -13 10 -30 0 -16 5 -30 10 -30 6 0 10 7 10 15 0 9 9 15 23 15 31 0 61 -52
52 -88 -4 -15 -6 -70 -5 -123 1 -77 -3 -108 -20 -155 -12 -33 -23 -68 -24 -79
-2 -13 -21 -27 -62 -44 -80 -34 -238 -35 -329 -2 -68 24 -68 24 -60 11 8 -13
-7 -13 -41 0 -40 16 -42 3 -2 -15 19 -9 38 -26 44 -38 5 -12 20 -27 34 -34 28
-14 95 -16 125 -3 14 6 4 7 -30 5 -27 -3 -41 -2 -30 1 11 3 30 10 43 17 26 13
57 0 57 -24 0 -10 10 -13 34 -11 l34 4 -6 -39 c-4 -21 -13 -43 -22 -49 -13
-10 -13 -13 -1 -23 8 -7 17 -24 21 -38 7 -30 -13 -86 -28 -76 -6 4 -7 1 -2 -7
5 -8 -1 -20 -16 -32 -13 -11 -18 -17 -12 -13 9 4 11 1 7 -9 -3 -9 -11 -13 -17
-9 -5 3 -7 2 -4 -4 8 -13 -21 -53 -39 -53 -8 0 -17 7 -20 15 -17 43 -143 85
-254 85 -69 0 -73 7 -35 63 23 32 31 37 68 38 23 1 32 4 20 6 -44 9 -54 58
-13 65 15 3 13 7 -12 32 l-29 28 7 -26 c7 -31 -10 -81 -42 -116 -12 -14 -25
-40 -29 -57 -6 -30 -10 -33 -45 -33 -32 0 -39 -4 -50 -30 -10 -24 -10 -37 -1
-56 10 -22 16 -25 42 -19 26 6 36 2 65 -26 l34 -33 0 26 c0 15 3 33 6 42 4 10
0 15 -13 15 -60 0 -87 8 -94 26 -15 39 -10 45 36 45 47 0 56 -9 30 -30 -8 -7
-15 -17 -15 -23 0 -6 14 2 32 19 17 16 28 24 25 18 -4 -7 0 -17 8 -24 9 -7 13
-20 11 -29 -2 -9 -7 -38 -11 -65 l-7 -49 -42 42 c-36 35 -44 40 -50 26 -20
-54 16 -170 71 -228 36 -37 118 -97 134 -97 4 0 5 25 2 55 -3 30 -3 55 1 55
17 0 96 -74 95 -89 0 -9 -3 -11 -5 -4 -3 6 -21 23 -40 38 l-34 26 0 -34 c0
-29 5 -37 31 -48 18 -7 63 -12 105 -11 83 3 189 42 291 109 60 39 95 50 86 27
-3 -7 -9 -12 -14 -11 -11 2 -55 -76 -95 -167 -18 -43 -22 -61 -13 -66 15 -10
3 -61 -13 -57 -6 1 -14 -11 -19 -27 -7 -24 -4 -32 12 -44 17 -12 20 -23 17
-66 -2 -37 -7 -51 -18 -51 -11 0 -16 13 -18 48 -3 47 -4 49 -29 42 -38 -9
-128 -79 -167 -131 -76 -99 -86 -225 -28 -339 17 -33 37 -69 46 -80 14 -19 15
-16 9 31 -7 62 8 93 83 175 30 32 54 62 55 66 3 32 11 57 23 69 18 18 17 20
77 -113 26 -56 57 -115 69 -132 l22 -31 -26 11 c-33 15 -61 62 -102 169 -32
84 -32 85 -39 50 -9 -52 28 -145 79 -196 46 -47 102 -67 169 -62 41 3 42 4 16
16 -40 21 -50 48 -61 156 -14 143 -35 220 -74 272 -19 24 -34 48 -34 53 0 5
-7 14 -15 21 -16 14 -22 130 -6 130 5 0 25 -18 44 -39 31 -34 37 -38 48 -25 8
9 12 38 10 72 l-3 57 30 -28 c16 -16 32 -25 35 -20 3 5 -10 19 -29 32 -31 22
-34 28 -34 75 0 78 8 81 68 25 40 -37 52 -54 47 -67 -6 -15 -8 -15 -15 3 -7
17 -8 16 -12 -10 -5 -29 -5 -29 -7 5 l-1 35 -15 -29 c-15 -29 -12 -46 8 -46
23 0 85 60 96 92 l11 33 -23 -28 c-21 -24 -25 -26 -36 -13 -9 11 -10 30 -3 76
5 33 5 63 0 66 -4 3 -9 33 -10 67 l-2 62 -3 -53 -4 -52 -44 37 c-43 37 -44 40
-45 96 0 31 3 57 6 57 11 0 126 -104 117 -107 -4 -2 -6 -24 -4 -49 2 -35 10
-53 30 -70 l26 -22 7 36 c5 32 2 41 -25 70 -17 17 -26 32 -21 32 6 0 23 -13
38 -29 25 -26 28 -35 24 -76 -7 -59 -13 -64 -43 -35 -36 34 -41 19 -5 -18 17
-18 32 -32 34 -32 2 0 16 28 32 63 25 54 29 74 29 159 0 64 -4 101 -12 109 -7
7 -13 23 -13 35 0 12 -9 33 -21 48 -34 44 -69 56 -156 54 -43 -1 -70 -3 -60
-6 14 -3 17 -10 13 -25 -3 -12 -6 -37 -6 -55 l0 -33 -45 37 c-25 20 -45 41
-45 47 0 6 18 -7 40 -28 l40 -39 0 41 c0 33 -4 42 -21 46 -34 9 -78 -11 -76
-36 2 -49 -3 -107 -10 -107 -5 0 -25 17 -47 36 -41 39 -38 55 14 68 19 5 17 2
-9 -12 -21 -12 -30 -22 -22 -26 6 -4 16 -4 23 0 6 4 8 3 5 -3 -4 -6 2 -18 13
-28 20 -18 20 -17 20 21 -1 53 -18 125 -35 144 -8 8 -19 36 -26 62 -11 41 -11
52 4 83 9 20 17 43 17 53 0 11 18 24 52 37 49 19 53 23 71 75 15 40 22 97 28
215 6 143 5 163 -10 190 -14 24 -24 30 -49 29 -25 -2 -32 2 -32 16 0 10 -6 23
-14 29 -11 9 -15 5 -20 -20z m-282 -564 l31 -13 -45 -1 c-43 -1 -70 11 -70 32
0 10 38 2 84 -18z m212 -20 c-22 -16 -54 -19 -83 -7 -13 5 -6 9 27 13 75 10
77 10 56 -6z m5 -60 c-25 -50 -41 -58 -41 -20 0 25 47 81 58 70 3 -3 -5 -25
-17 -50z m-6 -80 c31 -30 31 -39 3 -53 -21 -10 -20 -11 11 -9 20 1 36 -3 38
-10 3 -9 -6 -13 -26 -13 -17 0 -31 -4 -31 -10 0 -5 7 -7 15 -4 11 5 15 -1 15
-20 0 -20 -5 -26 -22 -26 -37 0 -52 14 -35 31 17 18 14 62 -8 95 -29 45 1 59
40 19z m306 -113 c6 20 7 19 8 -9 1 -38 -4 -40 -33 -16 -12 10 -9 4 7 -13 23
-25 27 -39 27 -87 0 -68 -9 -71 -62 -20 -40 39 -47 74 -28 133 9 29 13 19 10
-28 -1 -31 0 -32 24 -26 20 5 26 2 26 -11 0 -9 5 -13 11 -9 7 4 -2 19 -22 40
-21 22 -28 34 -18 35 10 0 10 2 2 6 -7 2 -13 9 -13 15 0 5 12 0 27 -12 l28
-22 6 24z m33 -22 c-2 -34 3 -43 32 -65 l34 -26 0 40 c0 30 -6 44 -22 55 -12
9 -18 16 -14 16 28 0 46 -35 46 -87 l0 -54 -45 38 c-38 31 -45 43 -45 73 0 30
6 50 15 50 1 0 0 -18 -1 -40z m-359 -16 c22 -9 0 -24 -34 -24 -20 0 -21 2 -11
15 14 17 21 18 45 9z m-335 -12 c0 -5 -11 -19 -25 -32 -27 -25 -38 -21 -50 18
-6 20 -3 22 34 22 23 0 41 -4 41 -8z m524 -31 c38 -39 38 -40 32 -95 l-7 -56
-45 36 c-33 27 -44 44 -44 64 0 38 11 90 19 90 4 0 24 -18 45 -39z m-394 -11
c0 -8 -24 -20 -39 -20 -4 0 -17 13 -29 29 l-22 30 45 -16 c25 -8 45 -18 45
-23z m215 -7 c-4 -20 -6 -81 -6 -136 l1 -98 -28 19 c-61 45 -74 63 -68 95 3
16 6 43 6 59 0 27 2 29 16 17 10 -8 12 -15 5 -17 -6 -2 -11 -23 -11 -46 0 -33
6 -48 29 -70 l28 -27 7 23 c11 44 6 67 -21 87 -14 12 -23 24 -20 28 4 3 16 -2
27 -12 38 -35 20 -4 -21 35 -35 34 -40 42 -29 55 7 9 20 13 29 10 9 -2 23 0
31 5 27 17 32 11 25 -27z m-290 7 c18 -20 17 -20 -11 -20 -29 0 -30 -2 -26
-37 l4 -38 -36 34 -35 34 31 24 c39 28 50 29 73 3z m395 -126 c0 -35 -3 -64
-7 -64 -4 0 -25 18 -48 40 -39 38 -40 41 -37 100 l4 60 44 -36 c44 -36 44 -37
44 -100z m-652 103 c2 -10 -3 -17 -12 -17 -10 0 -16 9 -16 21 0 24 23 21 28
-4z m937 -17 c36 -37 39 -44 36 -87 -1 -27 -4 -50 -6 -52 -2 -2 -22 11 -45 29
-39 31 -40 34 -40 91 0 32 4 59 8 59 4 0 26 -18 47 -40z m-573 -4 c-2 -12 1
-16 9 -10 8 4 10 3 5 -4 -13 -21 19 -13 39 11 l20 22 3 -34 c2 -19 1 -45 -3
-59 l-6 -25 -45 44 c-24 24 -42 49 -40 56 3 6 -3 14 -12 17 -9 2 -6 4 8 3 18
-2 24 -7 22 -21z m-143 -101 c-1 -16 -4 -42 -8 -57 l-6 -26 -42 38 -43 38 7
61 6 62 43 -42 c34 -33 44 -50 43 -74z m62 10 l29 -29 0 31 c0 25 -4 30 -22
28 -19 -2 -23 3 -25 27 -2 30 4 30 40 0 24 -21 22 1 -3 23 -11 10 -18 20 -15
23 3 3 14 -3 25 -13 15 -13 20 -31 20 -66 0 -82 -7 -86 -56 -38 -33 33 -44 51
-44 74 0 47 15 53 18 7 2 -28 11 -47 33 -67z m-169 -70 c1 -43 2 -45 5 -12 2
20 8 37 12 37 4 0 24 -18 46 -40 36 -37 39 -43 36 -92 -1 -29 -4 -55 -7 -57
-2 -2 -24 13 -49 33 -28 23 -45 46 -45 59 0 15 -3 18 -8 9 -19 -28 -61 53 -77
147 l-7 44 46 -39 c43 -36 46 -42 48 -89z m318 -24 c0 -35 -3 -61 -7 -58 -4 4
-6 31 -4 60 2 48 -1 55 -33 86 l-36 35 0 -49 c0 -42 5 -54 32 -82 18 -18 27
-33 22 -33 -6 0 -24 15 -40 33 -28 30 -30 36 -26 96 l4 63 44 -43 c43 -42 44
-45 44 -108z m294 90 c28 -27 70 -66 94 -87 43 -39 43 -39 40 -100 l-3 -62
-49 43 c-47 42 -48 44 -41 85 5 30 10 39 16 29 6 -9 9 -10 9 -2 0 17 -18 26
-32 16 -36 -22 -73 -3 -66 34 5 24 20 21 35 -8 12 -22 13 -22 13 -3 0 11 -13
33 -30 49 l-30 29 0 -44 c0 -26 6 -51 17 -62 22 -24 13 -32 -15 -12 -19 13
-22 25 -22 80 0 35 3 64 6 64 4 0 29 -22 58 -49z m274 8 c-6 -16 -8 -42 -6
-57 3 -15 2 -38 -2 -52 -4 -16 -7 -1 -8 45 -2 75 4 109 18 100 5 -3 4 -19 -2
-36z m-488 -17 l0 -26 -22 22 c-19 19 -21 24 -8 32 20 12 30 3 30 -28z m-213
-35 c30 -28 31 -32 26 -86 -3 -31 -7 -58 -10 -60 -2 -3 -21 13 -43 34 -38 38
-40 42 -40 103 0 72 -1 72 67 9z m311 0 c23 -23 42 -52 42 -62 0 -22 -20 -58
-20 -38 0 7 -6 10 -14 7 -9 -3 -12 -12 -8 -22 4 -12 -3 -10 -25 8 -30 23 -32
30 -32 88 -1 34 3 62 7 62 4 0 27 -19 50 -43z m-111 -43 c39 -32 44 -40 41
-73 -2 -29 -7 -35 -22 -33 -14 3 -17 -1 -12 -13 7 -19 -7 -13 -41 18 -19 17
-23 31 -23 79 0 32 3 58 6 58 4 0 27 -16 51 -36z m-108 -52 c41 -36 44 -40 37
-75 -8 -41 -21 -48 -31 -16 -6 16 -9 18 -15 8 -5 -7 -6 -17 -3 -22 3 -5 -6 -1
-21 8 -24 16 -26 23 -25 76 1 33 4 59 8 59 3 0 26 -17 50 -38z m360 -65 c-1
-18 -4 -45 -8 -60 l-6 -29 -25 27 c-24 27 -24 27 -2 16 21 -11 22 -10 23 31 1
24 1 47 0 51 -1 5 3 6 9 2 5 -3 9 -21 9 -38z m0 -147 c-1 -19 -4 -47 -8 -62
l-6 -28 -43 41 c-35 34 -41 45 -36 67 10 38 14 40 14 6 0 -21 10 -40 30 -59
l30 -29 0 45 c0 36 -5 51 -25 69 -38 35 -30 45 10 13 29 -23 35 -34 34 -63z
m-205 -221 c-4 -7 0 -9 14 -5 36 12 19 -18 -44 -77 -65 -60 -114 -141 -139
-228 l-15 -54 4 65 c4 85 38 152 114 227 31 32 58 61 58 65 3 15 4 18 10 18 3
0 2 -5 -2 -11z m-52 -39 c-18 -16 -47 -44 -64 -62 l-30 -33 21 32 c20 30 89
93 101 93 3 0 -10 -13 -28 -30z m217 -23 c31 -66 55 -201 42 -239 -14 -39 -14
-41 1 -32 7 4 8 3 4 -4 -4 -6 -2 -21 4 -32 6 -11 8 -20 6 -20 -8 0 -46 77 -46
92 0 9 3 9 11 -2 9 -12 10 -12 5 3 -3 10 -6 24 -7 30 0 7 -4 3 -8 -7 -6 -15
-15 -1 -41 65 -18 46 -40 94 -48 107 -12 18 -12 28 -3 48 21 46 50 0 92 -146
15 -52 28 -89 28 -81 2 27 -41 165 -65 214 -28 57 -28 58 -9 51 8 -3 23 -25
34 -47z m-108 1 c3 -30 -5 -43 -52 -85 -27 -25 -59 -61 -71 -81 -12 -19 -23
-31 -26 -24 -7 22 90 152 114 152 8 0 14 9 14 20 0 15 -13 6 -54 -38 -53 -59
-110 -161 -121 -217 -4 -24 -3 -26 4 -10 12 25 12 1 1 -35 -7 -22 -8 -22 -10
-5 -2 15 -4 12 -11 -10 -6 -22 -7 -13 -6 36 3 85 46 175 121 253 52 53 94 73
97 44z m74 -160 c66 -157 83 -190 98 -182 7 4 9 4 5 -1 -4 -4 -2 -17 4 -29 8
-16 3 -14 -22 9 -19 18 -51 69 -77 125 -24 52 -53 113 -65 136 -19 38 -18 72
2 59 4 -3 29 -56 55 -117z m-95 76 c0 -9 -39 -62 -92 -127 -26 -32 -48 -63
-48 -70 0 -7 -5 -4 -11 5 -11 19 -3 65 14 75 10 6 8 -7 -8 -52 -4 -11 7 4 24
34 49 86 121 166 121 135z"/>
<path d="M1340 1272 c0 -5 9 -17 21 -28 21 -19 21 -19 18 6 -4 23 -39 43 -39
22z"/>
<path d="M1740 1244 c0 -44 4 -54 35 -84 l35 -34 0 50 c0 44 -4 54 -35 84
l-35 34 0 -50z"/>
<path d="M1204 1179 c2 -8 12 -40 21 -71 19 -70 35 -75 35 -12 0 27 -4 43 -10
39 -5 -3 -10 0 -10 8 0 8 -9 22 -20 32 -15 13 -19 15 -16 4z"/>
<path d="M1300 1054 c0 -42 5 -55 28 -77 33 -32 42 -27 42 23 0 28 -8 43 -35
70 l-35 34 0 -50z"/>
<path d="M821 2193 l-1 -33 48 2 47 1 -42 4 c-36 4 -42 7 -46 31 -4 24 -4 24
-6 -5z"/>
<path d="M1606 2114 c-14 -10 -14 -13 2 -28 10 -9 24 -16 30 -16 14 0 35 37
27 50 -7 12 -39 9 -59 -6z"/>
<path d="M1204 1960 c0 -80 2 -112 3 -72 2 39 2 105 0 145 -1 39 -3 7 -3 -73z"/>
<path d="M1273 2010 c0 -36 2 -50 4 -32 2 17 2 47 0 65 -2 17 -4 3 -4 -33z"/>
<path d="M1265 1870 c-12 -19 -18 -117 -10 -166 6 -38 9 -44 15 -29 4 11 3 22
-1 23 -12 5 -11 109 0 150 10 32 8 41 -4 22z"/>
<path d="M704 1807 c1 -21 6 -22 101 -25 55 -2 98 -1 95 2 -3 3 -47 6 -98 7
-73 1 -92 5 -88 15 3 7 1 16 -3 18 -5 3 -8 -5 -7 -17z"/>
<path d="M1530 1804 c0 -8 5 -12 10 -9 6 3 10 -1 10 -9 0 -18 -16 -21 -25 -5
-4 6 -14 8 -22 5 -9 -4 -11 -2 -7 5 4 7 1 10 -6 7 -27 -9 -22 -28 7 -28 29 0
69 -18 46 -21 -7 -1 -17 -3 -23 -4 -5 -1 -13 -3 -17 -4 -4 0 -2 -6 5 -13 9 -9
17 -6 36 11 20 18 23 28 16 46 -5 13 -6 26 -3 29 4 3 -1 6 -10 6 -9 0 -17 -7
-17 -16z"/>
<path d="M1585 1780 c-3 -5 -3 -14 0 -20 3 -5 0 -20 -6 -32 -11 -20 -10 -22 3
-10 19 15 30 52 16 52 -5 0 -6 5 -3 10 3 6 4 10 1 10 -3 0 -8 -4 -11 -10z"/>
<path d="M704 1671 c1 -11 22 -13 101 -12 55 1 102 5 105 7 2 3 -41 4 -97 2
-62 -2 -104 1 -106 7 -2 6 -3 4 -3 -4z"/>
<path d="M1204 1560 c0 -52 1 -74 3 -47 2 26 2 68 0 95 -2 26 -3 4 -3 -48z"/>
<path d="M738 1473 c34 -2 88 -2 120 0 31 2 3 3 -63 3 -66 0 -92 -1 -57 -3z"/>
<path d="M2292 988 l-2 -157 -102 -4 -103 -3 103 -2 c76 -1 104 1 108 11 2 7
3 80 1 162 l-3 150 -2 -157z"/>
<path d="M738 1033 c34 -2 88 -2 120 0 31 2 3 3 -63 3 -66 0 -92 -1 -57 -3z"/>
<path d="M728 993 c23 -2 59 -2 80 0 20 2 1 4 -43 4 -44 0 -61 -2 -37 -4z"/>
<path d="M773 923 c37 -2 97 -2 135 0 37 2 6 3 -68 3 -74 0 -105 -1 -67 -3z"/>
<path d="M1083 923 c20 -2 54 -2 75 0 20 2 3 4 -38 4 -41 0 -58 -2 -37 -4z"/>
<path d="M1868 689 c-10 -5 -18 -17 -18 -25 0 -20 33 -2 36 20 1 9 2 16 1 16
-1 0 -10 -5 -19 -11z"/>
</g>
</svg>
